<?xml version="1.0" standalone="no"?>
<!DOCTYPE svg PUBLIC "-//W3C//DTD SVG 20010904//EN"
 "http://www.w3.org/TR/2001/REC-SVG-20010904/DTD/svg10.dtd">
<svg version="1.0" xmlns="http://www.w3.org/2000/svg"
 width="500.000000pt" height="500.000000pt" viewBox="0 0 500.000000 500.000000"
 preserveAspectRatio="xMidYMid meet">

<g transform="translate(0.000000,500.000000) scale(0.100000,-0.100000)"
fill="#000000" stroke="none">
<path d="M2435 3891 c-45 -5 -58 -14 -125 -76 -161 -151 -449 -451 -447 -465
5 -33 39 -19 112 49 71 66 95 82 95 64 0 -5 -46 -59 -101 -122 -69 -79 -99
-121 -97 -135 8 -53 51 -19 185 149 21 26 35 37 41 30 7 -7 -24 -53 -89 -135
-103 -130 -117 -160 -75 -160 18 0 47 29 125 124 109 134 116 142 126 126 3
-6 -28 -61 -70 -124 -78 -115 -89 -148 -49 -154 16 -2 49 36 157 178 144 188
167 207 187 154 6 -14 10 -45 10 -70 0 -77 53 -146 86 -112 11 11 12 26 4 73
-6 35 -7 137 -3 244 l6 184 31 35 c30 34 31 34 96 29 205 -17 467 -185 600
-384 42 -63 225 -283 235 -283 10 0 -43 148 -81 225 -134 274 -398 481 -684
538 -93 19 -209 26 -275 18z"/>
<path d="M2182 3845 c-153 -53 -281 -135 -399 -258 -97 -101 -133 -152 -189
-271 -57 -122 -83 -232 -91 -388 l-6 -127 61 -63 c33 -35 86 -92 117 -128 31
-36 82 -87 114 -115 32 -27 98 -92 146 -143 65 -68 94 -92 109 -90 36 5 23 34
-52 117 -40 44 -68 82 -62 86 5 3 60 -39 122 -94 106 -94 147 -117 162 -92 12
19 -8 41 -105 121 -93 76 -114 100 -88 100 5 0 64 -43 130 -95 120 -96 163
-116 157 -73 -2 15 -47 59 -128 125 -69 56 -126 107 -128 113 -9 25 37 4 143
-67 109 -72 117 -76 133 -60 13 13 14 21 6 35 -6 9 -86 73 -177 142 -212 159
-226 190 -87 198 60 4 75 8 100 32 17 15 30 33 30 39 0 18 -42 29 -75 19 -17
-5 -124 -5 -239 -2 l-210 7 -33 36 c-29 31 -32 41 -27 76 35 250 180 477 394
617 65 43 270 213 270 224 0 9 -28 2 -98 -21z"/>
<path d="M2937 3534 c-16 -16 -4 -39 51 -97 90 -97 98 -107 80 -107 -8 0 -66
45 -129 100 -63 55 -119 100 -125 100 -6 0 -17 -7 -24 -15 -16 -20 -4 -34 113
-128 76 -62 105 -97 80 -97 -5 0 -66 46 -136 101 -78 61 -134 99 -142 95 -36
-14 -11 -46 116 -151 92 -76 128 -110 120 -118 -7 -7 -44 12 -124 67 -116 79
-149 90 -155 50 -2 -16 34 -49 178 -158 177 -135 199 -159 168 -183 -7 -6 -40
-13 -73 -16 -70 -6 -106 -20 -124 -49 -11 -17 -10 -23 2 -35 12 -12 28 -13 93
-4 48 6 146 7 247 3 l169 -7 34 -38 c31 -33 34 -42 29 -75 -26 -152 -90 -299
-182 -420 -66 -86 -120 -135 -229 -208 -44 -29 -89 -63 -100 -75 -10 -12 -52
-48 -92 -81 -40 -33 -71 -62 -68 -65 10 -10 207 65 279 106 230 132 406 362
474 618 20 79 26 123 27 228 l1 130 -90 95 c-131 138 -436 435 -449 438 -7 1
-15 0 -19 -4z"/>
<path d="M2894 2708 c-16 -19 -76 -98 -134 -176 -138 -186 -168 -197 -181 -62
-5 55 -11 76 -30 96 -33 35 -65 29 -61 -11 8 -75 1 -452 -9 -475 -6 -14 -24
-36 -41 -49 -29 -23 -32 -24 -96 -12 -242 45 -465 194 -590 395 -20 32 -59 84
-87 115 -27 31 -70 79 -93 106 l-44 50 7 -40 c23 -133 129 -320 255 -446 194
-196 439 -299 714 -299 l103 0 45 48 c25 26 79 76 119 112 134 118 371 367
367 387 -6 33 -36 19 -117 -54 -44 -40 -82 -73 -85 -73 -19 0 5 34 95 135 101
115 116 147 73 153 -16 2 -42 -23 -108 -103 -48 -58 -91 -103 -97 -100 -12 8
-12 8 98 148 51 65 93 125 93 133 0 23 -29 28 -51 8 -11 -10 -61 -69 -112
-131 -50 -62 -97 -113 -105 -113 -20 0 -12 15 68 135 71 106 84 146 49 153 -9
2 -29 -12 -45 -30z"/>
<path d="M1817 1628 c-27 -10 -42 -40 -35 -74 3 -18 20 -29 83 -56 17 -7 30
-20 30 -28 0 -21 -53 -26 -61 -6 -9 24 -54 21 -54 -3 0 -48 110 -71 150 -31
41 41 17 91 -54 111 -40 11 -57 36 -35 50 20 13 27 11 49 -11 34 -34 66 -24
48 15 -18 40 -66 53 -121 33z"/>
<path d="M2393 1624 c-33 -16 -63 -66 -63 -104 0 -29 26 -76 52 -94 13 -9 43
-16 71 -16 63 0 107 39 107 94 l0 36 -60 0 c-53 0 -60 -2 -60 -20 0 -16 7 -20
35 -20 41 0 45 -13 10 -36 -69 -45 -138 51 -79 110 20 20 68 21 84 1 7 -8 26
-15 42 -15 26 0 28 2 18 21 -15 27 -69 59 -100 59 -14 0 -39 -8 -57 -16z"/>
<path d="M2973 1626 c-38 -17 -63 -61 -63 -112 0 -28 8 -44 34 -70 30 -30 41
-34 84 -34 59 0 95 24 112 75 15 46 5 86 -29 119 -35 33 -93 42 -138 22z m88
-47 c44 -23 39 -102 -7 -119 -67 -26 -123 56 -74 108 23 24 50 28 81 11z"/>
<path d="M1460 1520 l0 -110 25 0 c22 0 25 4 25 35 0 25 4 35 15 35 9 0 25
-16 36 -35 17 -28 27 -35 51 -35 l30 0 -21 33 -20 33 20 41 c15 31 17 46 10
66 -14 36 -40 47 -110 47 l-61 0 0 -110z m118 41 c4 -26 -12 -41 -45 -41 -20
0 -23 5 -23 36 0 34 1 35 33 32 25 -2 33 -8 35 -27z"/>
<path d="M1680 1520 l0 -110 25 0 25 0 0 110 0 110 -25 0 -25 0 0 -110z"/>
<path d="M1990 1520 l0 -110 25 0 25 0 0 110 0 110 -25 0 -25 0 0 -110z"/>
<path d="M2100 1520 l0 -110 25 0 c24 0 25 2 25 67 l0 68 48 -67 c34 -49 53
-68 70 -68 21 0 22 3 22 110 l0 110 -25 0 c-24 0 -25 -2 -25 -67 l0 -68 -47
67 c-35 49 -54 68 -70 68 -22 0 -23 -3 -23 -110z"/>
<path d="M2680 1520 l0 -110 25 0 c23 0 25 4 25 45 l0 45 45 0 45 0 0 -45 c0
-41 2 -45 25 -45 l25 0 0 110 0 110 -25 0 c-22 0 -25 -4 -25 -40 l0 -40 -45 0
-45 0 0 40 c0 36 -2 40 -25 40 l-25 0 0 -110z"/>
<path d="M3190 1520 l0 -110 25 0 c21 0 25 5 25 29 0 26 4 29 40 34 68 9 98
50 79 107 -15 40 -36 50 -108 50 l-61 0 0 -110z m108 61 c8 -4 12 -19 10 -32
-2 -19 -10 -25 -35 -27 -32 -3 -33 -2 -33 32 0 31 3 36 23 36 12 0 28 -4 35
-9z"/>
<path d="M3400 1520 l0 -110 75 0 c68 0 75 2 75 20 0 17 -7 20 -50 20 -47 0
-50 2 -50 25 0 23 4 25 45 25 38 0 45 3 45 19 0 16 -8 20 -42 23 -36 2 -44 7
-46 26 -3 20 0 22 47 22 44 0 51 3 51 20 0 18 -7 20 -75 20 l-75 0 0 -110z"/>
<path d="M1562 1223 c0 -38 3 -54 5 -36 3 26 9 33 31 36 l27 4 -27 2 c-23 1
-28 6 -28 25 0 20 6 25 33 29 31 4 31 4 -5 5 l-38 2 2 -67z"/>
<path d="M1747 1272 c-22 -25 -21 -75 1 -95 41 -37 112 -6 112 48 0 55 -77 87
-113 47z m90 -18 c15 -24 15 -29 2 -53 -29 -52 -99 -35 -99 24 0 57 65 77 97
29z"/>
<path d="M1961 1243 c-1 -58 15 -83 54 -83 32 0 47 30 42 88 l-3 47 -2 -50
c-2 -54 -14 -75 -43 -75 -24 0 -33 16 -40 75 l-6 50 -2 -52z"/>
<path d="M2172 1223 l1 -68 6 55 6 55 38 -52 c22 -29 41 -53 43 -53 2 0 3 30
2 68 l-1 67 -6 -54 -6 -55 -35 52 c-19 28 -38 52 -42 52 -5 0 -7 -30 -6 -67z"/>
<path d="M2390 1225 c0 -64 0 -65 28 -65 43 0 72 26 72 64 0 41 -26 66 -68 66
l-32 0 0 -65z m71 45 c23 -13 26 -62 3 -84 -8 -9 -26 -16 -40 -16 -22 0 -24 3
-24 55 0 49 2 55 21 55 11 0 29 -5 40 -10z"/>
<path d="M2616 1235 c-26 -57 -35 -96 -15 -62 6 11 22 17 44 17 21 0 38 -6 45
-17 14 -21 10 -7 -15 57 -10 25 -22 49 -26 54 -4 5 -19 -17 -33 -49z m48 -12
c6 -20 4 -23 -18 -23 -29 0 -31 7 -14 45 12 27 19 23 32 -22z"/>
<path d="M2802 1283 c26 -4 27 -8 31 -66 l3 -62 2 62 c2 59 3 62 30 66 15 2 0
4 -33 4 -33 0 -48 -2 -33 -4z"/>
<path d="M2993 1225 c0 -38 2 -53 4 -32 2 20 2 52 0 70 -2 17 -4 1 -4 -38z"/>
<path d="M3134 1282 c-26 -17 -36 -53 -24 -83 22 -51 100 -52 118 -2 10 30 0
72 -21 85 -15 10 -59 10 -73 0z m76 -17 c16 -20 16 -61 0 -80 -21 -26 -72 -15
-88 18 -12 24 -11 31 2 53 19 28 66 33 86 9z"/>
<path d="M3342 1223 l1 -68 6 55 6 55 38 -52 c22 -29 41 -53 43 -53 2 0 3 30
2 68 l-1 67 -6 -54 -6 -55 -35 52 c-19 28 -38 52 -42 52 -5 0 -7 -30 -6 -67z"/>
</g>
</svg>
