<?xml version="1.0" standalone="no"?>
<!DOCTYPE svg PUBLIC "-//W3C//DTD SVG 20010904//EN"
 "http://www.w3.org/TR/2001/REC-SVG-20010904/DTD/svg10.dtd">
<svg version="1.0" xmlns="http://www.w3.org/2000/svg"
 width="500.000000pt" height="500.000000pt" viewBox="0 0 500.000000 500.000000"
 preserveAspectRatio="xMidYMid meet">

<g transform="translate(0.000000,500.000000) scale(0.100000,-0.100000)"
fill="#000000" stroke="none">
<path d="M1812 1628 c-23 -12 -36 -43 -30 -75 3 -16 22 -28 98 -63 25 -12 17
-35 -13 -38 -18 -2 -29 2 -33 12 -4 9 -18 16 -34 16 -23 0 -27 -3 -23 -20 13
-50 114 -69 153 -30 41 41 17 91 -54 111 -40 11 -57 36 -35 50 20 13 27 11 49
-11 34 -34 66 -24 48 15 -18 40 -78 56 -126 33z"/>
<path d="M2393 1624 c-33 -16 -63 -66 -63 -104 0 -29 26 -76 52 -94 13 -9 43
-16 71 -16 63 0 107 39 107 94 l0 36 -60 0 c-53 0 -60 -2 -60 -20 0 -16 7 -20
35 -20 41 0 45 -13 10 -36 -69 -45 -138 51 -79 110 20 20 68 21 84 1 7 -8 26
-15 42 -15 26 0 28 2 18 21 -15 27 -69 59 -100 59 -14 0 -39 -8 -57 -16z"/>
<path d="M2973 1626 c-38 -17 -63 -61 -63 -112 0 -28 8 -44 34 -70 30 -30 41
-34 84 -34 59 0 95 24 112 75 15 46 5 86 -29 119 -35 33 -93 42 -138 22z m88
-47 c69 -36 17 -147 -55 -119 -48 18 -59 70 -24 107 23 25 48 29 79 12z"/>
<path d="M1460 1520 l0 -110 25 0 c22 0 25 4 25 35 0 25 4 35 15 35 9 0 25
-16 36 -35 17 -28 27 -35 51 -35 l30 0 -21 33 -20 33 20 41 c15 31 17 46 10
66 -14 36 -40 47 -110 47 l-61 0 0 -110z m118 41 c4 -26 -12 -41 -45 -41 -20
0 -23 5 -23 36 0 34 1 35 33 32 25 -2 33 -8 35 -27z"/>
<path d="M1680 1520 l0 -110 25 0 25 0 0 110 0 110 -25 0 -25 0 0 -110z"/>
<path d="M1990 1520 l0 -110 25 0 25 0 0 110 0 110 -25 0 -25 0 0 -110z"/>
<path d="M2100 1520 l0 -110 25 0 c24 0 25 2 25 67 l0 68 48 -67 c34 -49 53
-68 70 -68 21 0 22 3 22 110 l0 110 -25 0 c-24 0 -25 -2 -25 -67 l0 -68 -47
67 c-35 49 -54 68 -70 68 -22 0 -23 -3 -23 -110z"/>
<path d="M2680 1520 l0 -110 25 0 c23 0 25 4 25 45 l0 45 45 0 45 0 0 -45 c0
-41 2 -45 25 -45 l25 0 0 110 0 110 -25 0 c-22 0 -25 -4 -25 -40 l0 -40 -45 0
-45 0 0 40 c0 36 -2 40 -25 40 l-25 0 0 -110z"/>
<path d="M3190 1520 l0 -110 25 0 c21 0 25 5 25 29 0 26 4 29 40 34 68 9 98
50 79 107 -15 40 -36 50 -108 50 l-61 0 0 -110z m108 61 c8 -4 12 -19 10 -32
-2 -19 -10 -25 -35 -27 -32 -3 -33 -2 -33 32 0 31 3 36 23 36 12 0 28 -4 35
-9z"/>
<path d="M3400 1520 l0 -110 75 0 c68 0 75 2 75 20 0 17 -7 20 -50 20 -47 0
-50 2 -50 25 0 23 4 25 45 25 38 0 45 3 45 19 0 16 -8 20 -42 23 -36 2 -44 7
-46 26 -3 20 0 22 47 22 44 0 51 3 51 20 0 18 -7 20 -75 20 l-75 0 0 -110z"/>
<path d="M1562 1223 c0 -38 3 -54 5 -36 3 26 9 33 31 36 l27 4 -27 2 c-23 1
-28 6 -28 25 0 20 6 25 33 29 31 4 31 4 -5 5 l-38 2 2 -67z"/>
<path d="M1745 1270 c-38 -42 -9 -110 47 -110 35 0 68 32 68 65 0 56 -77 86
-115 45z m92 -16 c15 -24 15 -29 2 -53 -29 -52 -99 -35 -99 24 0 57 65 77 97
29z"/>
<path d="M1961 1243 c-1 -58 15 -83 54 -83 32 0 47 30 42 88 l-3 47 -2 -50
c-2 -54 -14 -75 -43 -75 -24 0 -33 16 -40 75 l-6 50 -2 -52z"/>
<path d="M2172 1223 l1 -68 6 55 6 55 38 -52 c22 -29 41 -53 43 -53 2 0 3 30
2 68 l-1 67 -6 -54 -6 -55 -35 52 c-19 28 -38 52 -42 52 -5 0 -7 -30 -6 -67z"/>
<path d="M2390 1225 c0 -64 0 -65 28 -65 43 0 72 26 72 64 0 41 -26 66 -68 66
l-32 0 0 -65z m71 45 c23 -13 26 -62 3 -84 -8 -9 -26 -16 -40 -16 -22 0 -24 3
-24 55 0 49 2 55 21 55 11 0 29 -5 40 -10z"/>
<path d="M2616 1235 c-26 -57 -35 -96 -15 -62 6 11 22 17 44 17 21 0 38 -6 45
-17 14 -21 10 -7 -15 57 -10 25 -22 49 -26 54 -4 5 -19 -17 -33 -49z m48 -12
c6 -20 4 -23 -18 -23 -29 0 -31 7 -14 45 12 27 19 23 32 -22z"/>
<path d="M2802 1283 c26 -4 27 -8 31 -66 l3 -62 2 62 c2 59 3 62 30 66 15 2 0
4 -33 4 -33 0 -48 -2 -33 -4z"/>
<path d="M2993 1225 c0 -38 2 -53 4 -32 2 20 2 52 0 70 -2 17 -4 1 -4 -38z"/>
<path d="M3132 1283 c-23 -9 -34 -54 -21 -85 21 -50 99 -51 117 -1 10 30 0 72
-21 85 -13 9 -55 9 -75 1z m76 -15 c7 -7 12 -26 12 -43 0 -38 -16 -55 -51 -55
-32 0 -51 21 -51 55 0 14 5 32 12 40 15 18 61 20 78 3z"/>
<path d="M3342 1223 l1 -68 6 55 6 55 38 -52 c22 -29 41 -53 43 -53 2 0 3 30
2 68 l-1 67 -6 -54 -6 -55 -35 52 c-19 28 -38 52 -42 52 -5 0 -7 -30 -6 -67z"/>
</g>
</svg>
